<mxfile host="app.diagrams.net" agent="Mozilla/5.0 (Windows NT 10.0; Win64; x64) AppleWebKit/537.36 (KHTML, like Gecko) Chrome/126.0.0.0 YaBrowser/24.7.0.0 Safari/537.36" version="24.8.0">
  <diagram name="Страница — 1" id="hwKcxrvtUPJVC-z0siP5">
    <mxGraphModel dx="819" dy="474" grid="1" gridSize="10" guides="1" tooltips="1" connect="1" arrows="1" fold="1" page="1" pageScale="1" pageWidth="827" pageHeight="1169" math="0" shadow="0">
      <root>
        <mxCell id="0" />
        <mxCell id="1" parent="0" />
        <mxCell id="OxIXa4cdl6yBEloKggQ3-12" style="edgeStyle=orthogonalEdgeStyle;rounded=0;orthogonalLoop=1;jettySize=auto;html=1;entryX=0.5;entryY=0;entryDx=0;entryDy=0;" edge="1" parent="1" source="OxIXa4cdl6yBEloKggQ3-1" target="OxIXa4cdl6yBEloKggQ3-3">
          <mxGeometry relative="1" as="geometry" />
        </mxCell>
        <mxCell id="OxIXa4cdl6yBEloKggQ3-1" value="" style="ellipse;html=1;shape=startState;fillColor=#000000;strokeColor=#ff0000;" vertex="1" parent="1">
          <mxGeometry x="400" y="160" width="30" height="30" as="geometry" />
        </mxCell>
        <mxCell id="OxIXa4cdl6yBEloKggQ3-6" style="edgeStyle=orthogonalEdgeStyle;rounded=0;orthogonalLoop=1;jettySize=auto;html=1;exitX=0.5;exitY=1;exitDx=0;exitDy=0;" edge="1" parent="1" source="OxIXa4cdl6yBEloKggQ3-3" target="OxIXa4cdl6yBEloKggQ3-5">
          <mxGeometry relative="1" as="geometry" />
        </mxCell>
        <mxCell id="OxIXa4cdl6yBEloKggQ3-3" value="Вы обнаруживаете лист у себя в кармане?" style="rounded=1;whiteSpace=wrap;html=1;" vertex="1" parent="1">
          <mxGeometry x="355" y="250" width="120" height="60" as="geometry" />
        </mxCell>
        <mxCell id="OxIXa4cdl6yBEloKggQ3-7" style="edgeStyle=orthogonalEdgeStyle;rounded=0;orthogonalLoop=1;jettySize=auto;html=1;" edge="1" parent="1" source="OxIXa4cdl6yBEloKggQ3-5">
          <mxGeometry relative="1" as="geometry">
            <mxPoint x="415" y="500" as="targetPoint" />
          </mxGeometry>
        </mxCell>
        <mxCell id="OxIXa4cdl6yBEloKggQ3-8" value="Да" style="edgeLabel;html=1;align=center;verticalAlign=middle;resizable=0;points=[];" vertex="1" connectable="0" parent="OxIXa4cdl6yBEloKggQ3-7">
          <mxGeometry x="-0.6022" y="-1" relative="1" as="geometry">
            <mxPoint as="offset" />
          </mxGeometry>
        </mxCell>
        <mxCell id="OxIXa4cdl6yBEloKggQ3-48" style="edgeStyle=orthogonalEdgeStyle;rounded=0;orthogonalLoop=1;jettySize=auto;html=1;exitX=0;exitY=0.5;exitDx=0;exitDy=0;entryX=0.5;entryY=0;entryDx=0;entryDy=0;" edge="1" parent="1" source="OxIXa4cdl6yBEloKggQ3-5" target="OxIXa4cdl6yBEloKggQ3-47">
          <mxGeometry relative="1" as="geometry" />
        </mxCell>
        <mxCell id="OxIXa4cdl6yBEloKggQ3-59" value="Нет" style="edgeLabel;html=1;align=center;verticalAlign=middle;resizable=0;points=[];" vertex="1" connectable="0" parent="OxIXa4cdl6yBEloKggQ3-48">
          <mxGeometry x="-0.7825" y="1" relative="1" as="geometry">
            <mxPoint as="offset" />
          </mxGeometry>
        </mxCell>
        <mxCell id="OxIXa4cdl6yBEloKggQ3-5" value="" style="rhombus;whiteSpace=wrap;html=1;" vertex="1" parent="1">
          <mxGeometry x="382.5" y="350" width="65" height="60" as="geometry" />
        </mxCell>
        <mxCell id="OxIXa4cdl6yBEloKggQ3-11" value="" style="shape=link;html=1;rounded=0;" edge="1" parent="1">
          <mxGeometry width="100" relative="1" as="geometry">
            <mxPoint x="360" y="500" as="sourcePoint" />
            <mxPoint x="460" y="500" as="targetPoint" />
          </mxGeometry>
        </mxCell>
        <mxCell id="OxIXa4cdl6yBEloKggQ3-16" value="" style="endArrow=classic;html=1;rounded=0;entryX=0.5;entryY=0;entryDx=0;entryDy=0;" edge="1" parent="1" target="OxIXa4cdl6yBEloKggQ3-24">
          <mxGeometry width="50" height="50" relative="1" as="geometry">
            <mxPoint x="460" y="500" as="sourcePoint" />
            <mxPoint x="460" y="570" as="targetPoint" />
          </mxGeometry>
        </mxCell>
        <mxCell id="OxIXa4cdl6yBEloKggQ3-17" value="" style="endArrow=classic;html=1;rounded=0;entryX=0.5;entryY=0;entryDx=0;entryDy=0;" edge="1" parent="1" target="OxIXa4cdl6yBEloKggQ3-21">
          <mxGeometry width="50" height="50" relative="1" as="geometry">
            <mxPoint x="360" y="500" as="sourcePoint" />
            <mxPoint x="360" y="570" as="targetPoint" />
          </mxGeometry>
        </mxCell>
        <mxCell id="OxIXa4cdl6yBEloKggQ3-18" value="" style="shape=link;html=1;rounded=0;" edge="1" parent="1">
          <mxGeometry width="100" relative="1" as="geometry">
            <mxPoint x="360" y="700" as="sourcePoint" />
            <mxPoint x="460" y="700" as="targetPoint" />
          </mxGeometry>
        </mxCell>
        <mxCell id="OxIXa4cdl6yBEloKggQ3-19" value="" style="endArrow=classic;html=1;rounded=0;exitX=0.5;exitY=1;exitDx=0;exitDy=0;" edge="1" parent="1" source="OxIXa4cdl6yBEloKggQ3-24">
          <mxGeometry width="50" height="50" relative="1" as="geometry">
            <mxPoint x="455" y="630" as="sourcePoint" />
            <mxPoint x="460" y="700" as="targetPoint" />
          </mxGeometry>
        </mxCell>
        <mxCell id="OxIXa4cdl6yBEloKggQ3-20" value="" style="endArrow=classic;html=1;rounded=0;exitX=0.5;exitY=1;exitDx=0;exitDy=0;" edge="1" parent="1" source="OxIXa4cdl6yBEloKggQ3-21">
          <mxGeometry width="50" height="50" relative="1" as="geometry">
            <mxPoint x="355" y="630" as="sourcePoint" />
            <mxPoint x="360" y="700" as="targetPoint" />
          </mxGeometry>
        </mxCell>
        <mxCell id="OxIXa4cdl6yBEloKggQ3-21" value="ищете продукт в списке" style="rounded=1;whiteSpace=wrap;html=1;" vertex="1" parent="1">
          <mxGeometry x="320" y="580" width="80" height="40" as="geometry" />
        </mxCell>
        <mxCell id="OxIXa4cdl6yBEloKggQ3-24" value="Ходите по магазину" style="rounded=1;whiteSpace=wrap;html=1;" vertex="1" parent="1">
          <mxGeometry x="420" y="580" width="80" height="40" as="geometry" />
        </mxCell>
        <mxCell id="OxIXa4cdl6yBEloKggQ3-30" style="edgeStyle=orthogonalEdgeStyle;rounded=0;orthogonalLoop=1;jettySize=auto;html=1;entryX=0;entryY=0.5;entryDx=0;entryDy=0;" edge="1" parent="1" source="OxIXa4cdl6yBEloKggQ3-25" target="OxIXa4cdl6yBEloKggQ3-29">
          <mxGeometry relative="1" as="geometry" />
        </mxCell>
        <mxCell id="OxIXa4cdl6yBEloKggQ3-25" value="Продукты в списке закончились?" style="rounded=1;whiteSpace=wrap;html=1;" vertex="1" parent="1">
          <mxGeometry x="362.5" y="740" width="105" height="50" as="geometry" />
        </mxCell>
        <mxCell id="OxIXa4cdl6yBEloKggQ3-27" value="" style="endArrow=classic;html=1;rounded=0;" edge="1" parent="1">
          <mxGeometry width="50" height="50" relative="1" as="geometry">
            <mxPoint x="413" y="700" as="sourcePoint" />
            <mxPoint x="413" y="740" as="targetPoint" />
          </mxGeometry>
        </mxCell>
        <mxCell id="OxIXa4cdl6yBEloKggQ3-34" style="edgeStyle=orthogonalEdgeStyle;rounded=0;orthogonalLoop=1;jettySize=auto;html=1;exitX=0.5;exitY=1;exitDx=0;exitDy=0;entryX=0.5;entryY=0;entryDx=0;entryDy=0;" edge="1" parent="1" source="OxIXa4cdl6yBEloKggQ3-29" target="OxIXa4cdl6yBEloKggQ3-38">
          <mxGeometry relative="1" as="geometry">
            <mxPoint x="410" y="860" as="targetPoint" />
          </mxGeometry>
        </mxCell>
        <mxCell id="OxIXa4cdl6yBEloKggQ3-37" value="Да" style="edgeLabel;html=1;align=center;verticalAlign=middle;resizable=0;points=[];" vertex="1" connectable="0" parent="OxIXa4cdl6yBEloKggQ3-34">
          <mxGeometry x="-0.882" y="2" relative="1" as="geometry">
            <mxPoint as="offset" />
          </mxGeometry>
        </mxCell>
        <mxCell id="OxIXa4cdl6yBEloKggQ3-60" style="edgeStyle=orthogonalEdgeStyle;rounded=0;orthogonalLoop=1;jettySize=auto;html=1;exitX=0.5;exitY=0;exitDx=0;exitDy=0;" edge="1" parent="1" source="OxIXa4cdl6yBEloKggQ3-29">
          <mxGeometry relative="1" as="geometry">
            <mxPoint x="440" y="500" as="targetPoint" />
            <Array as="points">
              <mxPoint x="542" y="440" />
              <mxPoint x="440" y="440" />
            </Array>
          </mxGeometry>
        </mxCell>
        <mxCell id="OxIXa4cdl6yBEloKggQ3-62" value="Нет" style="edgeLabel;html=1;align=center;verticalAlign=middle;resizable=0;points=[];" vertex="1" connectable="0" parent="OxIXa4cdl6yBEloKggQ3-60">
          <mxGeometry x="-0.9457" y="1" relative="1" as="geometry">
            <mxPoint as="offset" />
          </mxGeometry>
        </mxCell>
        <mxCell id="OxIXa4cdl6yBEloKggQ3-29" value="" style="rhombus;whiteSpace=wrap;html=1;" vertex="1" parent="1">
          <mxGeometry x="510" y="735" width="65" height="60" as="geometry" />
        </mxCell>
        <mxCell id="OxIXa4cdl6yBEloKggQ3-39" style="edgeStyle=orthogonalEdgeStyle;rounded=0;orthogonalLoop=1;jettySize=auto;html=1;" edge="1" parent="1" source="OxIXa4cdl6yBEloKggQ3-38">
          <mxGeometry relative="1" as="geometry">
            <mxPoint x="408" y="960" as="targetPoint" />
          </mxGeometry>
        </mxCell>
        <mxCell id="OxIXa4cdl6yBEloKggQ3-38" value="Вы оплачиваете и идете домой" style="rounded=1;whiteSpace=wrap;html=1;" vertex="1" parent="1">
          <mxGeometry x="348" y="860" width="120" height="60" as="geometry" />
        </mxCell>
        <mxCell id="OxIXa4cdl6yBEloKggQ3-42" value="" style="ellipse;html=1;shape=startState;fillColor=#000000;strokeColor=#ff0000;" vertex="1" parent="1">
          <mxGeometry x="393" y="960" width="30" height="30" as="geometry" />
        </mxCell>
        <mxCell id="OxIXa4cdl6yBEloKggQ3-61" style="edgeStyle=orthogonalEdgeStyle;rounded=0;orthogonalLoop=1;jettySize=auto;html=1;exitX=1;exitY=0.5;exitDx=0;exitDy=0;" edge="1" parent="1" source="OxIXa4cdl6yBEloKggQ3-47">
          <mxGeometry relative="1" as="geometry">
            <mxPoint x="390" y="500" as="targetPoint" />
          </mxGeometry>
        </mxCell>
        <mxCell id="OxIXa4cdl6yBEloKggQ3-47" value="Вы соствляете список по памяти" style="rounded=1;whiteSpace=wrap;html=1;" vertex="1" parent="1">
          <mxGeometry x="190" y="420" width="80" height="70" as="geometry" />
        </mxCell>
      </root>
    </mxGraphModel>
  </diagram>
</mxfile>
